<svg xmlns="http://www.w3.org/2000/svg" xmlns:xlink="http://www.w3.org/1999/xlink" width="474" zoomAndPan="magnify" viewBox="0 0 355.5 298.499991" height="398" preserveAspectRatio="xMidYMid meet" version="1.0"><defs><g/><clipPath id="5c39e69ff2"><path d="M 44 43 L 177 43 L 177 141 L 44 141 Z M 44 43 " clip-rule="nonzero"/></clipPath><clipPath id="24753395b9"><path d="M 188.121094 127.363281 L 158.164062 167.695312 L 37.78125 78.273438 L 67.738281 37.945312 Z M 188.121094 127.363281 " clip-rule="nonzero"/></clipPath><clipPath id="de16fd87f6"><path d="M 188.121094 127.363281 L 158.164062 167.695312 L 37.78125 78.273438 L 67.738281 37.945312 Z M 188.121094 127.363281 " clip-rule="nonzero"/></clipPath><clipPath id="e1ebabca30"><path d="M 188.121094 127.363281 L 158.164062 167.695312 L 37.78125 78.273438 L 67.738281 37.945312 Z M 188.121094 127.363281 " clip-rule="nonzero"/></clipPath></defs><g clip-path="url(#5c39e69ff2)"><g clip-path="url(#24753395b9)"><g clip-path="url(#de16fd87f6)"><g clip-path="url(#e1ebabca30)"><path fill="#000000" d="M 68.371094 97.460938 C 63.097656 90.488281 56.824219 84.378906 49.683594 79.378906 C 68.558594 75.683594 88.277344 76.554688 106.816406 81.59375 C 126.148438 86.847656 144.75 96.609375 159.238281 110.554688 C 167.089844 118.113281 174.019531 127.601562 174.613281 138.859375 C 174.691406 140.339844 177.066406 142.007812 176.949219 139.746094 C 176.40625 129.453125 171.15625 120.226562 164.441406 112.660156 C 157.523438 104.863281 149.027344 98.335938 140.160156 92.90625 C 122.175781 81.902344 101.492188 75.417969 80.449219 74.085938 C 70.203125 73.433594 59.914062 74.054688 49.828125 75.914062 C 56.644531 67.097656 62 57.203125 65.640625 46.652344 C 65.90625 45.878906 65.601562 44.914062 65.046875 44.335938 C 64.644531 43.914062 63.769531 43.539062 63.496094 44.328125 C 59.433594 56.121094 53.238281 67.035156 45.1875 76.558594 C 45.089844 76.671875 45.027344 76.808594 44.992188 76.960938 C 44.234375 77.507812 45.210938 79.503906 45.753906 79.84375 C 53.902344 84.9375 61.101562 91.429688 66.902344 99.101562 C 68.277344 100.917969 69.457031 98.898438 68.371094 97.460938 Z M 68.371094 97.460938 " fill-opacity="1" fill-rule="nonzero"/></g></g></g></g><g fill="#000000" fill-opacity="1"><g transform="translate(82.389905, 189.021648)"><g><path d="M 5.796875 -26.792969 C 4.160156 -25.710938 3.238281 -24.230469 3.078125 -22.433594 C 2.839844 -19.875 4.199219 -16.996094 6.957031 -14.316406 C 11.15625 -10.195312 13.476562 -7.199219 12.117188 -4.917969 C 11.234375 -3.480469 9.796875 -2.558594 8.15625 -2.398438 C 5.878906 -2.199219 3.4375 -3.359375 1.28125 -5.71875 C 0.917969 -6.15625 0.28125 -6.15625 -0.121094 -5.796875 C -0.558594 -5.4375 -0.558594 -4.796875 -0.199219 -4.359375 C 2.160156 -1.757812 4.917969 -0.359375 7.597656 -0.359375 C 7.835938 -0.359375 8.078125 -0.359375 8.355469 -0.398438 C 10.636719 -0.640625 12.636719 -1.878906 13.835938 -3.878906 C 16.113281 -7.675781 12.394531 -11.835938 8.355469 -15.753906 C 6.078125 -17.953125 4.878906 -20.351562 5.078125 -22.234375 C 5.199219 -23.433594 5.796875 -24.351562 6.878906 -25.113281 C 10.714844 -27.632812 14.875 -23.792969 15.035156 -23.632812 C 15.433594 -23.230469 16.074219 -23.273438 16.472656 -23.671875 C 16.835938 -24.070312 16.835938 -24.710938 16.433594 -25.070312 C 14.554688 -26.871094 9.917969 -29.511719 5.796875 -26.792969 Z M 5.796875 -26.792969 "/></g></g></g><g fill="#000000" fill-opacity="1"><g transform="translate(99.223721, 189.021648)"><g><path d="M 10.277344 -3.796875 C 9.238281 -2.917969 7.597656 -1.917969 5.679688 -2.199219 C 4.796875 -2.320312 4.117188 -2.757812 3.679688 -3.519531 C 3.519531 -3.757812 3.398438 -4.039062 3.320312 -4.359375 C 4.71875 -4.519531 7.199219 -5.078125 9.796875 -7.039062 C 11.476562 -8.316406 12.394531 -9.917969 12.277344 -11.277344 C 12.195312 -12.195312 11.675781 -12.957031 10.757812 -13.4375 C 9.796875 -13.914062 8.238281 -13.835938 6.636719 -13.195312 C 4.320312 -12.316406 2.519531 -10.515625 1.757812 -8.4375 C 1.398438 -7.398438 1.199219 -6.359375 1.199219 -5.4375 C 1.199219 -5.398438 1.199219 -5.398438 1.199219 -5.398438 C 1.199219 -5.277344 1.199219 -5.199219 1.199219 -5.117188 C 1.238281 -4.160156 1.519531 -3.238281 1.960938 -2.480469 C 2.71875 -1.238281 3.917969 -0.441406 5.359375 -0.238281 C 5.71875 -0.199219 6.039062 -0.160156 6.316406 -0.160156 C 8.558594 -0.160156 10.355469 -1.28125 11.554688 -2.277344 C 11.957031 -2.640625 11.996094 -3.277344 11.636719 -3.679688 C 11.316406 -4.117188 10.675781 -4.160156 10.277344 -3.796875 Z M 3.597656 -7.757812 C 4.199219 -9.316406 5.597656 -10.675781 7.359375 -11.394531 C 8.078125 -11.675781 8.71875 -11.796875 9.195312 -11.796875 C 9.515625 -11.796875 9.714844 -11.714844 9.875 -11.675781 C 10.238281 -11.476562 10.316406 -11.277344 10.316406 -11.117188 C 10.355469 -10.597656 9.835938 -9.558594 8.597656 -8.597656 C 6.4375 -6.996094 4.398438 -6.476562 3.238281 -6.359375 C 3.320312 -6.796875 3.4375 -7.277344 3.597656 -7.757812 Z M 3.597656 -7.757812 "/></g></g></g><g fill="#000000" fill-opacity="1"><g transform="translate(112.738749, 189.021648)"><g><path d="M 6.199219 -27.390625 C 5.679688 -27.511719 5.160156 -27.109375 5.078125 -26.589844 L 1.039062 -1.160156 C 0.960938 -0.640625 1.320312 -0.121094 1.839844 -0.0390625 C 1.917969 -0.0390625 1.960938 -0.0390625 2 -0.0390625 C 2.480469 -0.0390625 2.917969 -0.398438 3 -0.878906 L 7.039062 -26.269531 C 7.117188 -26.832031 6.757812 -27.3125 6.199219 -27.390625 Z M 6.199219 -27.390625 "/></g></g></g><g fill="#000000" fill-opacity="1"><g transform="translate(118.536612, 189.021648)"><g><path d="M 10.277344 -3.796875 C 9.238281 -2.917969 7.597656 -1.917969 5.679688 -2.199219 C 4.796875 -2.320312 4.117188 -2.757812 3.679688 -3.519531 C 3.519531 -3.757812 3.398438 -4.039062 3.320312 -4.359375 C 4.71875 -4.519531 7.199219 -5.078125 9.796875 -7.039062 C 11.476562 -8.316406 12.394531 -9.917969 12.277344 -11.277344 C 12.195312 -12.195312 11.675781 -12.957031 10.757812 -13.4375 C 9.796875 -13.914062 8.238281 -13.835938 6.636719 -13.195312 C 4.320312 -12.316406 2.519531 -10.515625 1.757812 -8.4375 C 1.398438 -7.398438 1.199219 -6.359375 1.199219 -5.4375 C 1.199219 -5.398438 1.199219 -5.398438 1.199219 -5.398438 C 1.199219 -5.277344 1.199219 -5.199219 1.199219 -5.117188 C 1.238281 -4.160156 1.519531 -3.238281 1.960938 -2.480469 C 2.71875 -1.238281 3.917969 -0.441406 5.359375 -0.238281 C 5.71875 -0.199219 6.039062 -0.160156 6.316406 -0.160156 C 8.558594 -0.160156 10.355469 -1.28125 11.554688 -2.277344 C 11.957031 -2.640625 11.996094 -3.277344 11.636719 -3.679688 C 11.316406 -4.117188 10.675781 -4.160156 10.277344 -3.796875 Z M 3.597656 -7.757812 C 4.199219 -9.316406 5.597656 -10.675781 7.359375 -11.394531 C 8.078125 -11.675781 8.71875 -11.796875 9.195312 -11.796875 C 9.515625 -11.796875 9.714844 -11.714844 9.875 -11.675781 C 10.238281 -11.476562 10.316406 -11.277344 10.316406 -11.117188 C 10.355469 -10.597656 9.835938 -9.558594 8.597656 -8.597656 C 6.4375 -6.996094 4.398438 -6.476562 3.238281 -6.359375 C 3.320312 -6.796875 3.4375 -7.277344 3.597656 -7.757812 Z M 3.597656 -7.757812 "/></g></g></g><g fill="#000000" fill-opacity="1"><g transform="translate(132.05164, 189.021648)"><g><path d="M 12.597656 -10.996094 C 12.554688 -11.117188 11.515625 -13.277344 8.878906 -13.515625 C 5.238281 -13.796875 2.4375 -10.917969 1.597656 -7.917969 C 0.601562 -4.558594 1.839844 -1.160156 4.359375 -0.398438 C 4.878906 -0.238281 5.359375 -0.160156 5.878906 -0.160156 C 8.15625 -0.160156 10.476562 -1.597656 11.355469 -3.796875 C 11.554688 -4.320312 11.316406 -4.878906 10.796875 -5.078125 C 10.316406 -5.277344 9.714844 -5.039062 9.515625 -4.558594 C 8.835938 -2.800781 6.679688 -1.757812 4.957031 -2.277344 C 3.519531 -2.71875 2.839844 -5.117188 3.480469 -7.398438 C 4.117188 -9.558594 6.15625 -11.757812 8.71875 -11.515625 C 10.195312 -11.394531 10.796875 -10.238281 10.796875 -10.15625 C 11.035156 -9.675781 11.636719 -9.476562 12.117188 -9.714844 C 12.597656 -9.917969 12.835938 -10.515625 12.597656 -10.996094 Z M 12.597656 -10.996094 "/></g></g></g><g fill="#000000" fill-opacity="1"><g transform="translate(145.286774, 189.021648)"><g><path d="M 11.476562 -13.875 L 8.238281 -13.875 L 10.515625 -26.75 C 10.597656 -27.269531 10.238281 -27.789062 9.714844 -27.910156 C 9.15625 -27.992188 8.636719 -27.632812 8.558594 -27.109375 L 6.199219 -13.875 L 2.480469 -13.875 C 1.917969 -13.875 1.480469 -13.4375 1.480469 -12.875 C 1.480469 -12.316406 1.917969 -11.875 2.480469 -11.875 L 5.878906 -11.875 L 4.039062 -1.480469 C 3.917969 -0.917969 4.277344 -0.441406 4.839844 -0.320312 C 4.878906 -0.320312 4.917969 -0.320312 5 -0.320312 C 5.476562 -0.320312 5.878906 -0.640625 5.957031 -1.121094 L 7.878906 -11.875 L 11.476562 -11.875 C 12.035156 -11.875 12.476562 -12.316406 12.476562 -12.875 C 12.476562 -13.4375 12.035156 -13.875 11.476562 -13.875 Z M 11.476562 -13.875 "/></g></g></g><g fill="#000000" fill-opacity="1"><g transform="translate(157.282365, 189.021648)"><g/></g></g><g fill="#000000" fill-opacity="1"><g transform="translate(168.118386, 189.021648)"><g><path d="M 13.074219 -13.277344 C 12.554688 -13.394531 12.074219 -13.074219 11.917969 -12.554688 C 9.875 -4.597656 6.878906 -2.480469 5.996094 -2.039062 C 5.558594 -1.800781 4.957031 -1.558594 4.398438 -1.757812 C 3.359375 -2.121094 3.238281 -6.4375 4.679688 -12.074219 C 4.839844 -12.597656 4.519531 -13.117188 4 -13.277344 C 3.4375 -13.394531 2.917969 -13.074219 2.757812 -12.554688 C 2.078125 -9.917969 0.121094 -1.160156 3.71875 0.078125 C 4.71875 0.441406 5.796875 0.320312 6.917969 -0.28125 C 8.277344 -1 9.558594 -2.320312 10.675781 -4.160156 C 10.195312 -1.121094 9.714844 1.960938 9.398438 3.519531 C 8.675781 7.039062 7.078125 10.15625 5.476562 11.15625 C 3.878906 12.117188 0.960938 12.195312 0.121094 11.515625 C -0.320312 11.195312 -0.917969 11.234375 -1.28125 11.675781 C -1.597656 12.117188 -1.558594 12.714844 -1.121094 13.074219 C -0.359375 13.675781 0.839844 13.914062 2.078125 13.914062 C 3.679688 13.914062 5.359375 13.515625 6.476562 12.835938 C 9.035156 11.277344 10.714844 7.039062 11.316406 3.878906 C 12.074219 0.238281 13.796875 -11.675781 13.875 -12.15625 C 13.957031 -12.675781 13.59375 -13.15625 13.074219 -13.277344 Z M 13.074219 -13.277344 "/></g></g></g><g fill="#000000" fill-opacity="1"><g transform="translate(183.032901, 189.021648)"><g><path d="M 11.957031 -10.355469 C 11.835938 -11.675781 11.15625 -12.835938 10.035156 -13.4375 C 8.878906 -14.15625 7.398438 -14.117188 5.957031 -13.4375 C 3.957031 -12.476562 1.558594 -9.957031 1.28125 -6.117188 C 1.160156 -4.160156 1.519531 -2.679688 2.4375 -1.71875 C 3.160156 -0.917969 4.199219 -0.519531 5.476562 -0.519531 C 6.71875 -0.519531 8.15625 -1.320312 9.398438 -2.640625 C 10.476562 -3.796875 12.234375 -6.359375 11.957031 -10.355469 Z M 7.917969 -3.957031 C 6.996094 -2.960938 5.996094 -2.519531 5.476562 -2.519531 C 4.757812 -2.519531 4.238281 -2.679688 3.878906 -3.078125 C 3.398438 -3.597656 3.160156 -4.597656 3.277344 -5.957031 C 3.4375 -8.796875 5.199219 -10.875 6.796875 -11.636719 C 7.277344 -11.875 7.71875 -11.996094 8.117188 -11.996094 C 8.476562 -11.996094 8.796875 -11.917969 9.078125 -11.757812 C 9.597656 -11.4375 9.917969 -10.875 9.996094 -10.238281 C 10.238281 -6.957031 8.796875 -4.917969 7.917969 -3.957031 Z M 7.917969 -3.957031 "/></g></g></g><g fill="#000000" fill-opacity="1"><g transform="translate(196.028128, 189.021648)"><g><path d="M 12.914062 -13.835938 C 12.4375 -13.957031 11.957031 -13.714844 11.757812 -13.277344 C 8.316406 -5.519531 5.679688 -2.597656 4.4375 -2.480469 C 4.320312 -2.480469 4.117188 -2.4375 3.839844 -2.839844 C 3.4375 -3.398438 3.320312 -5.679688 3.917969 -8.835938 C 4.359375 -10.996094 4.636719 -12.636719 4.636719 -12.636719 C 4.757812 -13.15625 4.398438 -13.675781 3.839844 -13.796875 C 3.320312 -13.875 2.800781 -13.515625 2.71875 -12.996094 C 2.71875 -12.996094 2.398438 -11.355469 2 -9.195312 C 1.597656 -7.078125 1.078125 -3.277344 2.238281 -1.679688 C 2.839844 -0.839844 3.71875 -0.398438 4.636719 -0.519531 C 6.636719 -0.71875 8.71875 -3.359375 10.597656 -6.558594 L 9.757812 -1.441406 C 9.675781 -0.917969 10.035156 -0.398438 10.554688 -0.320312 C 10.636719 -0.320312 10.675781 -0.320312 10.757812 -0.320312 C 11.195312 -0.320312 11.636719 -0.640625 11.714844 -1.121094 L 13.636719 -12.714844 C 13.714844 -13.195312 13.394531 -13.675781 12.914062 -13.835938 Z M 12.914062 -13.835938 "/></g></g></g><g fill="#000000" fill-opacity="1"><g transform="translate(210.542792, 189.021648)"><g><path d="M 12.554688 -12.675781 C 12.4375 -12.753906 9.675781 -14.714844 5.957031 -12.117188 C 5.4375 -11.757812 4.917969 -11.195312 4.480469 -10.515625 L 4.839844 -12.835938 C 4.917969 -13.394531 4.558594 -13.875 4.039062 -13.957031 C 3.480469 -14.035156 2.960938 -13.675781 2.878906 -13.15625 L 1.078125 -1.519531 C 1 -1 1.359375 -0.519531 1.878906 -0.398438 C 1.917969 -0.398438 2 -0.398438 2.039062 -0.398438 C 2.519531 -0.398438 2.917969 -0.679688 3.039062 -1.160156 C 3.679688 -4.160156 5.398438 -9.316406 7.078125 -10.515625 C 9.597656 -12.277344 11.316406 -11.117188 11.355469 -11.078125 C 11.796875 -10.757812 12.4375 -10.875 12.753906 -11.316406 C 13.074219 -11.757812 12.996094 -12.355469 12.554688 -12.675781 Z M 12.554688 -12.675781 "/></g></g></g><g fill="#000000" fill-opacity="1"><g transform="translate(223.218129, 189.021648)"><g/></g></g><g fill="#000000" fill-opacity="1"><g transform="translate(234.054149, 189.021648)"><g><path d="M 18.753906 -27.949219 C 18.195312 -28.03125 17.675781 -27.671875 17.59375 -27.109375 L 14.195312 -5.078125 L 6.476562 -27.269531 C 6.316406 -27.710938 5.917969 -27.992188 5.4375 -27.949219 C 5 -27.910156 4.597656 -27.589844 4.519531 -27.109375 L 0.28125 -1.078125 C 0.199219 -0.519531 0.558594 -0.0390625 1.121094 0.078125 C 1.160156 0.078125 1.238281 0.078125 1.28125 0.078125 C 1.757812 0.078125 2.199219 -0.28125 2.277344 -0.757812 L 5.878906 -22.871094 L 13.636719 -0.601562 C 13.796875 -0.160156 14.234375 0.121094 14.675781 0.078125 C 15.15625 0.0390625 15.515625 -0.320312 15.59375 -0.757812 L 19.59375 -26.792969 C 19.671875 -27.351562 19.3125 -27.871094 18.753906 -27.949219 Z M 18.753906 -27.949219 "/></g></g></g><g fill="#000000" fill-opacity="1"><g transform="translate(254.086783, 189.021648)"><g><path d="M 11.957031 -10.355469 C 11.835938 -11.675781 11.15625 -12.835938 10.035156 -13.4375 C 8.878906 -14.15625 7.398438 -14.117188 5.957031 -13.4375 C 3.957031 -12.476562 1.558594 -9.957031 1.28125 -6.117188 C 1.160156 -4.160156 1.519531 -2.679688 2.4375 -1.71875 C 3.160156 -0.917969 4.199219 -0.519531 5.476562 -0.519531 C 6.71875 -0.519531 8.15625 -1.320312 9.398438 -2.640625 C 10.476562 -3.796875 12.234375 -6.359375 11.957031 -10.355469 Z M 7.917969 -3.957031 C 6.996094 -2.960938 5.996094 -2.519531 5.476562 -2.519531 C 4.757812 -2.519531 4.238281 -2.679688 3.878906 -3.078125 C 3.398438 -3.597656 3.160156 -4.597656 3.277344 -5.957031 C 3.4375 -8.796875 5.199219 -10.875 6.796875 -11.636719 C 7.277344 -11.875 7.71875 -11.996094 8.117188 -11.996094 C 8.476562 -11.996094 8.796875 -11.917969 9.078125 -11.757812 C 9.597656 -11.4375 9.917969 -10.875 9.996094 -10.238281 C 10.238281 -6.957031 8.796875 -4.917969 7.917969 -3.957031 Z M 7.917969 -3.957031 "/></g></g></g><g fill="#000000" fill-opacity="1"><g transform="translate(267.082011, 189.021648)"><g><path d="M 11.476562 -13.875 L 8.238281 -13.875 L 10.515625 -26.75 C 10.597656 -27.269531 10.238281 -27.789062 9.714844 -27.910156 C 9.15625 -27.992188 8.636719 -27.632812 8.558594 -27.109375 L 6.199219 -13.875 L 2.480469 -13.875 C 1.917969 -13.875 1.480469 -13.4375 1.480469 -12.875 C 1.480469 -12.316406 1.917969 -11.875 2.480469 -11.875 L 5.878906 -11.875 L 4.039062 -1.480469 C 3.917969 -0.917969 4.277344 -0.441406 4.839844 -0.320312 C 4.878906 -0.320312 4.917969 -0.320312 5 -0.320312 C 5.476562 -0.320312 5.878906 -0.640625 5.957031 -1.121094 L 7.878906 -11.875 L 11.476562 -11.875 C 12.035156 -11.875 12.476562 -12.316406 12.476562 -12.875 C 12.476562 -13.4375 12.035156 -13.875 11.476562 -13.875 Z M 11.476562 -13.875 "/></g></g></g><g fill="#000000" fill-opacity="1"><g transform="translate(279.07759, 189.021648)"><g><path d="M 10.277344 -3.796875 C 9.238281 -2.917969 7.597656 -1.917969 5.679688 -2.199219 C 4.796875 -2.320312 4.117188 -2.757812 3.679688 -3.519531 C 3.519531 -3.757812 3.398438 -4.039062 3.320312 -4.359375 C 4.71875 -4.519531 7.199219 -5.078125 9.796875 -7.039062 C 11.476562 -8.316406 12.394531 -9.917969 12.277344 -11.277344 C 12.195312 -12.195312 11.675781 -12.957031 10.757812 -13.4375 C 9.796875 -13.914062 8.238281 -13.835938 6.636719 -13.195312 C 4.320312 -12.316406 2.519531 -10.515625 1.757812 -8.4375 C 1.398438 -7.398438 1.199219 -6.359375 1.199219 -5.4375 C 1.199219 -5.398438 1.199219 -5.398438 1.199219 -5.398438 C 1.199219 -5.277344 1.199219 -5.199219 1.199219 -5.117188 C 1.238281 -4.160156 1.519531 -3.238281 1.960938 -2.480469 C 2.71875 -1.238281 3.917969 -0.441406 5.359375 -0.238281 C 5.71875 -0.199219 6.039062 -0.160156 6.316406 -0.160156 C 8.558594 -0.160156 10.355469 -1.28125 11.554688 -2.277344 C 11.957031 -2.640625 11.996094 -3.277344 11.636719 -3.679688 C 11.316406 -4.117188 10.675781 -4.160156 10.277344 -3.796875 Z M 3.597656 -7.757812 C 4.199219 -9.316406 5.597656 -10.675781 7.359375 -11.394531 C 8.078125 -11.675781 8.71875 -11.796875 9.195312 -11.796875 C 9.515625 -11.796875 9.714844 -11.714844 9.875 -11.675781 C 10.238281 -11.476562 10.316406 -11.277344 10.316406 -11.117188 C 10.355469 -10.597656 9.835938 -9.558594 8.597656 -8.597656 C 6.4375 -6.996094 4.398438 -6.476562 3.238281 -6.359375 C 3.320312 -6.796875 3.4375 -7.277344 3.597656 -7.757812 Z M 3.597656 -7.757812 "/></g></g></g><g fill="#000000" fill-opacity="1"><g transform="translate(57.482526, 244.50676)"><g><path d="M 17.953125 -25.992188 C 16.835938 -27.511719 13.675781 -29.910156 9.636719 -28.152344 C 4.480469 -25.871094 2.4375 -18.3125 1.917969 -16.035156 C 1.28125 -13.277344 0.320312 -5.199219 3.238281 -1.558594 C 4.160156 -0.398438 5.4375 0.199219 6.957031 0.199219 C 12.195312 0.199219 14.914062 -6.519531 14.996094 -6.796875 C 15.195312 -7.316406 14.953125 -7.917969 14.433594 -8.117188 C 13.914062 -8.316406 13.316406 -8.078125 13.117188 -7.558594 C 13.074219 -7.476562 10.796875 -1.839844 6.957031 -1.839844 C 6.078125 -1.839844 5.398438 -2.160156 4.839844 -2.839844 C 2.800781 -5.359375 3.078125 -11.835938 3.917969 -15.59375 C 4.839844 -19.792969 7.039062 -24.792969 10.476562 -26.269531 C 13.996094 -27.789062 16.234375 -24.910156 16.316406 -24.792969 C 16.632812 -24.3125 17.273438 -24.230469 17.753906 -24.550781 C 18.195312 -24.910156 18.273438 -25.550781 17.953125 -25.992188 Z M 17.953125 -25.992188 "/></g></g></g><g fill="#000000" fill-opacity="1"><g transform="translate(74.676208, 244.50676)"><g><path d="M 11.957031 -10.355469 C 11.835938 -11.675781 11.15625 -12.835938 10.035156 -13.4375 C 8.878906 -14.15625 7.398438 -14.117188 5.957031 -13.4375 C 3.957031 -12.476562 1.558594 -9.957031 1.28125 -6.117188 C 1.160156 -4.160156 1.519531 -2.679688 2.4375 -1.71875 C 3.160156 -0.917969 4.199219 -0.519531 5.476562 -0.519531 C 6.71875 -0.519531 8.15625 -1.320312 9.398438 -2.640625 C 10.476562 -3.796875 12.234375 -6.359375 11.957031 -10.355469 Z M 7.917969 -3.957031 C 6.996094 -2.960938 5.996094 -2.519531 5.476562 -2.519531 C 4.757812 -2.519531 4.238281 -2.679688 3.878906 -3.078125 C 3.398438 -3.597656 3.160156 -4.597656 3.277344 -5.957031 C 3.4375 -8.796875 5.199219 -10.875 6.796875 -11.636719 C 7.277344 -11.875 7.71875 -11.996094 8.117188 -11.996094 C 8.476562 -11.996094 8.796875 -11.917969 9.078125 -11.757812 C 9.597656 -11.4375 9.917969 -10.875 9.996094 -10.238281 C 10.238281 -6.957031 8.796875 -4.917969 7.917969 -3.957031 Z M 7.917969 -3.957031 "/></g></g></g><g fill="#000000" fill-opacity="1"><g transform="translate(87.671436, 244.50676)"><g><path d="M 6.199219 -27.390625 C 5.679688 -27.511719 5.160156 -27.109375 5.078125 -26.589844 L 1.039062 -1.160156 C 0.960938 -0.640625 1.320312 -0.121094 1.839844 -0.0390625 C 1.917969 -0.0390625 1.960938 -0.0390625 2 -0.0390625 C 2.480469 -0.0390625 2.917969 -0.398438 3 -0.878906 L 7.039062 -26.269531 C 7.117188 -26.832031 6.757812 -27.3125 6.199219 -27.390625 Z M 6.199219 -27.390625 "/></g></g></g><g fill="#000000" fill-opacity="1"><g transform="translate(93.469299, 244.50676)"><g><path d="M 11.957031 -10.355469 C 11.835938 -11.675781 11.15625 -12.835938 10.035156 -13.4375 C 8.878906 -14.15625 7.398438 -14.117188 5.957031 -13.4375 C 3.957031 -12.476562 1.558594 -9.957031 1.28125 -6.117188 C 1.160156 -4.160156 1.519531 -2.679688 2.4375 -1.71875 C 3.160156 -0.917969 4.199219 -0.519531 5.476562 -0.519531 C 6.71875 -0.519531 8.15625 -1.320312 9.398438 -2.640625 C 10.476562 -3.796875 12.234375 -6.359375 11.957031 -10.355469 Z M 7.917969 -3.957031 C 6.996094 -2.960938 5.996094 -2.519531 5.476562 -2.519531 C 4.757812 -2.519531 4.238281 -2.679688 3.878906 -3.078125 C 3.398438 -3.597656 3.160156 -4.597656 3.277344 -5.957031 C 3.4375 -8.796875 5.199219 -10.875 6.796875 -11.636719 C 7.277344 -11.875 7.71875 -11.996094 8.117188 -11.996094 C 8.476562 -11.996094 8.796875 -11.917969 9.078125 -11.757812 C 9.597656 -11.4375 9.917969 -10.875 9.996094 -10.238281 C 10.238281 -6.957031 8.796875 -4.917969 7.917969 -3.957031 Z M 7.917969 -3.957031 "/></g></g></g><g fill="#000000" fill-opacity="1"><g transform="translate(106.464526, 244.50676)"><g><path d="M 12.554688 -12.675781 C 12.4375 -12.753906 9.675781 -14.714844 5.957031 -12.117188 C 5.4375 -11.757812 4.917969 -11.195312 4.480469 -10.515625 L 4.839844 -12.835938 C 4.917969 -13.394531 4.558594 -13.875 4.039062 -13.957031 C 3.480469 -14.035156 2.960938 -13.675781 2.878906 -13.15625 L 1.078125 -1.519531 C 1 -1 1.359375 -0.519531 1.878906 -0.398438 C 1.917969 -0.398438 2 -0.398438 2.039062 -0.398438 C 2.519531 -0.398438 2.917969 -0.679688 3.039062 -1.160156 C 3.679688 -4.160156 5.398438 -9.316406 7.078125 -10.515625 C 9.597656 -12.277344 11.316406 -11.117188 11.355469 -11.078125 C 11.796875 -10.757812 12.4375 -10.875 12.753906 -11.316406 C 13.074219 -11.757812 12.996094 -12.355469 12.554688 -12.675781 Z M 12.554688 -12.675781 "/></g></g></g><g fill="#000000" fill-opacity="1"><g transform="translate(119.139863, 244.50676)"><g/></g></g><g fill="#000000" fill-opacity="1"><g transform="translate(129.975884, 244.50676)"><g><path d="M 11.476562 -13.875 L 8.238281 -13.875 L 10.515625 -26.75 C 10.597656 -27.269531 10.238281 -27.789062 9.714844 -27.910156 C 9.15625 -27.992188 8.636719 -27.632812 8.558594 -27.109375 L 6.199219 -13.875 L 2.480469 -13.875 C 1.917969 -13.875 1.480469 -13.4375 1.480469 -12.875 C 1.480469 -12.316406 1.917969 -11.875 2.480469 -11.875 L 5.878906 -11.875 L 4.039062 -1.480469 C 3.917969 -0.917969 4.277344 -0.441406 4.839844 -0.320312 C 4.878906 -0.320312 4.917969 -0.320312 5 -0.320312 C 5.476562 -0.320312 5.878906 -0.640625 5.957031 -1.121094 L 7.878906 -11.875 L 11.476562 -11.875 C 12.035156 -11.875 12.476562 -12.316406 12.476562 -12.875 C 12.476562 -13.4375 12.035156 -13.875 11.476562 -13.875 Z M 11.476562 -13.875 "/></g></g></g><g fill="#000000" fill-opacity="1"><g transform="translate(141.971475, 244.50676)"><g><path d="M 11.957031 -10.355469 C 11.835938 -11.675781 11.15625 -12.835938 10.035156 -13.4375 C 8.878906 -14.15625 7.398438 -14.117188 5.957031 -13.4375 C 3.957031 -12.476562 1.558594 -9.957031 1.28125 -6.117188 C 1.160156 -4.160156 1.519531 -2.679688 2.4375 -1.71875 C 3.160156 -0.917969 4.199219 -0.519531 5.476562 -0.519531 C 6.71875 -0.519531 8.15625 -1.320312 9.398438 -2.640625 C 10.476562 -3.796875 12.234375 -6.359375 11.957031 -10.355469 Z M 7.917969 -3.957031 C 6.996094 -2.960938 5.996094 -2.519531 5.476562 -2.519531 C 4.757812 -2.519531 4.238281 -2.679688 3.878906 -3.078125 C 3.398438 -3.597656 3.160156 -4.597656 3.277344 -5.957031 C 3.4375 -8.796875 5.199219 -10.875 6.796875 -11.636719 C 7.277344 -11.875 7.71875 -11.996094 8.117188 -11.996094 C 8.476562 -11.996094 8.796875 -11.917969 9.078125 -11.757812 C 9.597656 -11.4375 9.917969 -10.875 9.996094 -10.238281 C 10.238281 -6.957031 8.796875 -4.917969 7.917969 -3.957031 Z M 7.917969 -3.957031 "/></g></g></g><g fill="#000000" fill-opacity="1"><g transform="translate(154.966702, 244.50676)"><g/></g></g><g fill="#000000" fill-opacity="1"><g transform="translate(165.802722, 244.50676)"><g><path d="M 12.636719 -13.355469 C 12.195312 -13.4375 11.757812 -13.195312 11.597656 -12.753906 C 10.996094 -13.316406 10.238281 -13.753906 9.316406 -13.753906 C 7.238281 -13.753906 4.679688 -11.957031 2.800781 -9.15625 C 1.359375 -6.996094 0.558594 -3.796875 1 -1.917969 C 1.238281 -0.960938 1.71875 -0.519531 2.121094 -0.320312 C 2.640625 0 3.199219 0.160156 3.796875 0.160156 C 4.160156 0.160156 4.519531 0.078125 4.878906 0 C 6.558594 -0.519531 8.316406 -2.199219 10.238281 -5.078125 C 9.796875 -2.519531 9.355469 -0.0390625 9.117188 1.039062 C 7.675781 7.957031 5.277344 12.074219 2.679688 12.074219 C 2.640625 12.074219 2.640625 12.074219 2.597656 12.074219 C 0.679688 12.074219 0.199219 11.234375 0.199219 11.234375 C 0 10.757812 -0.558594 10.476562 -1.078125 10.675781 C -1.597656 10.875 -1.839844 11.476562 -1.640625 11.957031 C -1.558594 12.195312 -0.71875 14.074219 2.597656 14.074219 C 2.640625 14.074219 2.640625 14.074219 2.679688 14.074219 C 7.675781 14.035156 10.078125 6.15625 11.078125 1.441406 C 11.636719 -1.199219 13.394531 -11.796875 13.476562 -12.234375 C 13.554688 -12.753906 13.195312 -13.277344 12.636719 -13.355469 Z M 4.320312 -1.917969 C 3.839844 -1.757812 3.480469 -1.800781 3.078125 -2.039062 C 2.597656 -2.398438 2.800781 -5.597656 4.4375 -8.039062 C 6.078125 -10.476562 8.15625 -11.796875 9.316406 -11.796875 C 9.917969 -11.796875 10.636719 -11.035156 11.035156 -10.398438 C 7.597656 -3.757812 5.359375 -2.238281 4.320312 -1.917969 Z M 4.320312 -1.917969 "/></g></g></g><g fill="#000000" fill-opacity="1"><g transform="translate(180.197427, 244.50676)"><g><path d="M 10.277344 -3.796875 C 9.238281 -2.917969 7.597656 -1.917969 5.679688 -2.199219 C 4.796875 -2.320312 4.117188 -2.757812 3.679688 -3.519531 C 3.519531 -3.757812 3.398438 -4.039062 3.320312 -4.359375 C 4.71875 -4.519531 7.199219 -5.078125 9.796875 -7.039062 C 11.476562 -8.316406 12.394531 -9.917969 12.277344 -11.277344 C 12.195312 -12.195312 11.675781 -12.957031 10.757812 -13.4375 C 9.796875 -13.914062 8.238281 -13.835938 6.636719 -13.195312 C 4.320312 -12.316406 2.519531 -10.515625 1.757812 -8.4375 C 1.398438 -7.398438 1.199219 -6.359375 1.199219 -5.4375 C 1.199219 -5.398438 1.199219 -5.398438 1.199219 -5.398438 C 1.199219 -5.277344 1.199219 -5.199219 1.199219 -5.117188 C 1.238281 -4.160156 1.519531 -3.238281 1.960938 -2.480469 C 2.71875 -1.238281 3.917969 -0.441406 5.359375 -0.238281 C 5.71875 -0.199219 6.039062 -0.160156 6.316406 -0.160156 C 8.558594 -0.160156 10.355469 -1.28125 11.554688 -2.277344 C 11.957031 -2.640625 11.996094 -3.277344 11.636719 -3.679688 C 11.316406 -4.117188 10.675781 -4.160156 10.277344 -3.796875 Z M 3.597656 -7.757812 C 4.199219 -9.316406 5.597656 -10.675781 7.359375 -11.394531 C 8.078125 -11.675781 8.71875 -11.796875 9.195312 -11.796875 C 9.515625 -11.796875 9.714844 -11.714844 9.875 -11.675781 C 10.238281 -11.476562 10.316406 -11.277344 10.316406 -11.117188 C 10.355469 -10.597656 9.835938 -9.558594 8.597656 -8.597656 C 6.4375 -6.996094 4.398438 -6.476562 3.238281 -6.359375 C 3.320312 -6.796875 3.4375 -7.277344 3.597656 -7.757812 Z M 3.597656 -7.757812 "/></g></g></g><g fill="#000000" fill-opacity="1"><g transform="translate(193.712455, 244.50676)"><g><path d="M 11.476562 -13.875 L 8.238281 -13.875 L 10.515625 -26.75 C 10.597656 -27.269531 10.238281 -27.789062 9.714844 -27.910156 C 9.15625 -27.992188 8.636719 -27.632812 8.558594 -27.109375 L 6.199219 -13.875 L 2.480469 -13.875 C 1.917969 -13.875 1.480469 -13.4375 1.480469 -12.875 C 1.480469 -12.316406 1.917969 -11.875 2.480469 -11.875 L 5.878906 -11.875 L 4.039062 -1.480469 C 3.917969 -0.917969 4.277344 -0.441406 4.839844 -0.320312 C 4.878906 -0.320312 4.917969 -0.320312 5 -0.320312 C 5.476562 -0.320312 5.878906 -0.640625 5.957031 -1.121094 L 7.878906 -11.875 L 11.476562 -11.875 C 12.035156 -11.875 12.476562 -12.316406 12.476562 -12.875 C 12.476562 -13.4375 12.035156 -13.875 11.476562 -13.875 Z M 11.476562 -13.875 "/></g></g></g><g fill="#000000" fill-opacity="1"><g transform="translate(205.708045, 244.50676)"><g/></g></g><g fill="#000000" fill-opacity="1"><g transform="translate(216.544066, 244.50676)"><g><path d="M 4.636719 -11.316406 C 5.597656 -11.835938 7.359375 -11.714844 8.277344 -11.277344 C 9.316406 -10.835938 9.796875 -10.398438 9.996094 -10.078125 C 10.355469 -9.675781 10.957031 -9.597656 11.394531 -9.917969 C 11.835938 -10.277344 11.875 -10.875 11.554688 -11.316406 C 11.035156 -11.957031 10.238281 -12.554688 9.15625 -13.074219 C 7.71875 -13.753906 5.316406 -13.914062 3.71875 -13.074219 C 2.800781 -12.597656 2.199219 -11.796875 2.039062 -10.835938 C 1.640625 -8.316406 4.238281 -7.15625 6.359375 -6.199219 C 7.796875 -5.558594 8.71875 -4.71875 8.757812 -3.957031 C 8.796875 -3.597656 8.636719 -3.320312 8.316406 -3.117188 C 7.476562 -2.558594 6.398438 -2.398438 5.4375 -2.679688 C 4.320312 -2.960938 3.398438 -3.757812 2.800781 -4.917969 C 2.558594 -5.398438 1.960938 -5.558594 1.441406 -5.316406 C 0.960938 -5.078125 0.800781 -4.480469 1.039062 -4 C 1.917969 -2.320312 3.277344 -1.199219 4.917969 -0.757812 C 5.398438 -0.640625 5.878906 -0.558594 6.359375 -0.558594 C 7.4375 -0.558594 8.476562 -0.878906 9.398438 -1.441406 C 10.316406 -2.039062 10.796875 -3.039062 10.714844 -4.117188 C 10.675781 -5 10.117188 -6.71875 7.15625 -8.039062 C 4.878906 -9.035156 3.878906 -9.636719 4 -10.515625 C 4.039062 -10.757812 4.160156 -11.078125 4.636719 -11.316406 Z M 4.636719 -11.316406 "/></g></g></g><g fill="#000000" fill-opacity="1"><g transform="translate(229.099455, 244.50676)"><g><path d="M 11.476562 -13.875 L 8.238281 -13.875 L 10.515625 -26.75 C 10.597656 -27.269531 10.238281 -27.789062 9.714844 -27.910156 C 9.15625 -27.992188 8.636719 -27.632812 8.558594 -27.109375 L 6.199219 -13.875 L 2.480469 -13.875 C 1.917969 -13.875 1.480469 -13.4375 1.480469 -12.875 C 1.480469 -12.316406 1.917969 -11.875 2.480469 -11.875 L 5.878906 -11.875 L 4.039062 -1.480469 C 3.917969 -0.917969 4.277344 -0.441406 4.839844 -0.320312 C 4.878906 -0.320312 4.917969 -0.320312 5 -0.320312 C 5.476562 -0.320312 5.878906 -0.640625 5.957031 -1.121094 L 7.878906 -11.875 L 11.476562 -11.875 C 12.035156 -11.875 12.476562 -12.316406 12.476562 -12.875 C 12.476562 -13.4375 12.035156 -13.875 11.476562 -13.875 Z M 11.476562 -13.875 "/></g></g></g><g fill="#000000" fill-opacity="1"><g transform="translate(241.095046, 244.50676)"><g><path d="M 12.957031 -13.394531 C 12.476562 -13.515625 11.957031 -13.277344 11.757812 -12.835938 C 11.675781 -12.636719 11.597656 -12.4375 11.476562 -12.234375 C 10.917969 -12.714844 10.15625 -13.195312 9.195312 -13.355469 C 7.796875 -13.59375 6.398438 -13.117188 5.039062 -11.875 C 1.71875 -8.957031 0.320312 -4.238281 1.078125 -1.71875 C 1.359375 -0.640625 2.078125 0 3 0.160156 C 3.117188 0.160156 3.277344 0.199219 3.398438 0.199219 C 6.078125 0.199219 8.796875 -3.359375 10.796875 -6.679688 L 9.917969 -0.960938 C 9.835938 -0.441406 10.238281 0.078125 10.757812 0.160156 C 11.316406 0.238281 11.796875 -0.121094 11.875 -0.679688 L 13.636719 -12.277344 C 13.714844 -12.753906 13.4375 -13.234375 12.957031 -13.394531 Z M 3.277344 -1.800781 C 3.117188 -1.839844 3 -2.121094 2.960938 -2.277344 C 2.4375 -3.957031 3.480469 -7.878906 6.359375 -10.398438 C 7.117188 -11.117188 7.878906 -11.4375 8.558594 -11.4375 C 8.636719 -11.4375 8.757812 -11.4375 8.878906 -11.4375 C 9.597656 -11.316406 10.195312 -10.757812 10.597656 -10.355469 C 7.4375 -4.199219 4.519531 -1.640625 3.277344 -1.800781 Z M 3.277344 -1.800781 "/></g></g></g><g fill="#000000" fill-opacity="1"><g transform="translate(255.769666, 244.50676)"><g><path d="M 12.554688 -12.675781 C 12.4375 -12.753906 9.675781 -14.714844 5.957031 -12.117188 C 5.4375 -11.757812 4.917969 -11.195312 4.480469 -10.515625 L 4.839844 -12.835938 C 4.917969 -13.394531 4.558594 -13.875 4.039062 -13.957031 C 3.480469 -14.035156 2.960938 -13.675781 2.878906 -13.15625 L 1.078125 -1.519531 C 1 -1 1.359375 -0.519531 1.878906 -0.398438 C 1.917969 -0.398438 2 -0.398438 2.039062 -0.398438 C 2.519531 -0.398438 2.917969 -0.679688 3.039062 -1.160156 C 3.679688 -4.160156 5.398438 -9.316406 7.078125 -10.515625 C 9.597656 -12.277344 11.316406 -11.117188 11.355469 -11.078125 C 11.796875 -10.757812 12.4375 -10.875 12.753906 -11.316406 C 13.074219 -11.757812 12.996094 -12.355469 12.554688 -12.675781 Z M 12.554688 -12.675781 "/></g></g></g><g fill="#000000" fill-opacity="1"><g transform="translate(268.444991, 244.50676)"><g><path d="M 11.476562 -13.875 L 8.238281 -13.875 L 10.515625 -26.75 C 10.597656 -27.269531 10.238281 -27.789062 9.714844 -27.910156 C 9.15625 -27.992188 8.636719 -27.632812 8.558594 -27.109375 L 6.199219 -13.875 L 2.480469 -13.875 C 1.917969 -13.875 1.480469 -13.4375 1.480469 -12.875 C 1.480469 -12.316406 1.917969 -11.875 2.480469 -11.875 L 5.878906 -11.875 L 4.039062 -1.480469 C 3.917969 -0.917969 4.277344 -0.441406 4.839844 -0.320312 C 4.878906 -0.320312 4.917969 -0.320312 5 -0.320312 C 5.476562 -0.320312 5.878906 -0.640625 5.957031 -1.121094 L 7.878906 -11.875 L 11.476562 -11.875 C 12.035156 -11.875 12.476562 -12.316406 12.476562 -12.875 C 12.476562 -13.4375 12.035156 -13.875 11.476562 -13.875 Z M 11.476562 -13.875 "/></g></g></g><g fill="#000000" fill-opacity="1"><g transform="translate(280.440582, 244.50676)"><g><path d="M 10.277344 -3.796875 C 9.238281 -2.917969 7.597656 -1.917969 5.679688 -2.199219 C 4.796875 -2.320312 4.117188 -2.757812 3.679688 -3.519531 C 3.519531 -3.757812 3.398438 -4.039062 3.320312 -4.359375 C 4.71875 -4.519531 7.199219 -5.078125 9.796875 -7.039062 C 11.476562 -8.316406 12.394531 -9.917969 12.277344 -11.277344 C 12.195312 -12.195312 11.675781 -12.957031 10.757812 -13.4375 C 9.796875 -13.914062 8.238281 -13.835938 6.636719 -13.195312 C 4.320312 -12.316406 2.519531 -10.515625 1.757812 -8.4375 C 1.398438 -7.398438 1.199219 -6.359375 1.199219 -5.4375 C 1.199219 -5.398438 1.199219 -5.398438 1.199219 -5.398438 C 1.199219 -5.277344 1.199219 -5.199219 1.199219 -5.117188 C 1.238281 -4.160156 1.519531 -3.238281 1.960938 -2.480469 C 2.71875 -1.238281 3.917969 -0.441406 5.359375 -0.238281 C 5.71875 -0.199219 6.039062 -0.160156 6.316406 -0.160156 C 8.558594 -0.160156 10.355469 -1.28125 11.554688 -2.277344 C 11.957031 -2.640625 11.996094 -3.277344 11.636719 -3.679688 C 11.316406 -4.117188 10.675781 -4.160156 10.277344 -3.796875 Z M 3.597656 -7.757812 C 4.199219 -9.316406 5.597656 -10.675781 7.359375 -11.394531 C 8.078125 -11.675781 8.71875 -11.796875 9.195312 -11.796875 C 9.515625 -11.796875 9.714844 -11.714844 9.875 -11.675781 C 10.238281 -11.476562 10.316406 -11.277344 10.316406 -11.117188 C 10.355469 -10.597656 9.835938 -9.558594 8.597656 -8.597656 C 6.4375 -6.996094 4.398438 -6.476562 3.238281 -6.359375 C 3.320312 -6.796875 3.4375 -7.277344 3.597656 -7.757812 Z M 3.597656 -7.757812 "/></g></g></g><g fill="#000000" fill-opacity="1"><g transform="translate(293.955609, 244.50676)"><g><path d="M 14.316406 -27.511719 C 13.796875 -27.589844 13.277344 -27.230469 13.195312 -26.710938 L 11.035156 -12.753906 C 10.476562 -13.277344 9.675781 -13.753906 8.558594 -13.796875 C 5.597656 -13.957031 2.238281 -9.996094 1.398438 -6.558594 C 0.238281 -1.757812 2.121094 -0.558594 3.359375 -0.238281 C 3.558594 -0.199219 3.71875 -0.160156 3.917969 -0.160156 C 5.757812 -0.160156 7.996094 -2.199219 9.917969 -5.359375 L 9.277344 -1.320312 C 9.195312 -0.757812 9.597656 -0.238281 10.117188 -0.160156 C 10.15625 -0.160156 10.238281 -0.160156 10.277344 -0.160156 C 10.757812 -0.160156 11.15625 -0.519531 11.234375 -1 L 15.15625 -26.390625 C 15.234375 -26.949219 14.875 -27.429688 14.316406 -27.511719 Z M 3.839844 -2.160156 C 2.597656 -2.480469 3.078125 -5 3.320312 -6.078125 C 4 -8.835938 6.636719 -11.835938 8.355469 -11.835938 C 8.398438 -11.835938 8.398438 -11.835938 8.4375 -11.835938 C 9.558594 -11.757812 9.996094 -10.957031 10.078125 -10.875 C 10.117188 -10.757812 10.15625 -10.675781 10.238281 -10.597656 C 7.957031 -4.519531 4.796875 -1.917969 3.839844 -2.160156 Z M 3.839844 -2.160156 "/></g></g></g><g fill="#000000" fill-opacity="1"><g transform="translate(307.950477, 244.50676)"><g/></g></g></svg>